<svg xmlns="http://www.w3.org/2000/svg" xmlns:xlink="http://www.w3.org/1999/xlink" width="500" zoomAndPan="magnify" viewBox="0 0 375 374.999991" height="500" preserveAspectRatio="xMidYMid meet" version="1.0"><defs><g/><clipPath id="429e10629c"><path d="M 115 64.359375 L 311.757812 64.359375 L 311.757812 276.609375 L 115 276.609375 Z M 115 64.359375 " clip-rule="nonzero"/></clipPath></defs><g clip-path="url(#429e10629c)"><path fill="#ffffff" d="M 286.132812 115.417969 C 269.878906 97.757812 247.816406 86.878906 224.003906 84.773438 L 223.734375 87.835938 C 272.003906 92.097656 308.40625 131.90625 308.40625 180.433594 C 308.40625 231.242188 267.433594 272.65625 216.789062 273.378906 L 216.789062 213.027344 L 213.71875 213.027344 L 213.71875 273.371094 C 163.253906 272.449219 122.484375 231.113281 122.484375 180.433594 C 122.484375 179.339844 122.511719 178.246094 122.546875 177.160156 C 123.03125 177.1875 123.597656 177.210938 124.25 177.210938 C 127.761719 177.210938 133.617188 176.625 140.976562 173.707031 C 151.902344 169.375 168.429688 158.808594 185.117188 133.050781 C 217.023438 83.808594 212.0625 66.199219 211.835938 65.476562 L 211.484375 64.359375 L 210.316406 64.398438 C 209.753906 64.414062 196.410156 64.914062 179.660156 69.691406 C 164.140625 74.121094 142.777344 83.214844 129.132812 101.414062 C 114.90625 120.398438 111.632812 145.433594 119.414062 175.824219 L 119.507812 176.195312 C 119.449219 177.605469 119.410156 179.015625 119.410156 180.4375 C 119.414062 233.390625 162.492188 276.46875 215.449219 276.46875 C 268.402344 276.46875 311.484375 233.390625 311.484375 180.433594 C 311.484375 156.273438 302.480469 133.183594 286.132812 115.417969 Z M 131.582031 103.269531 C 154.488281 72.691406 200.605469 68.128906 209.074219 67.546875 C 209.492188 72.125 208.949219 90.617188 182.542969 131.375 C 166.386719 156.304688 150.539062 166.546875 140.089844 170.746094 C 131.757812 174.09375 125.453125 174.230469 122.707031 174.074219 C 124.25 150.847656 134.257812 129.414062 151.28125 113.164062 L 149.160156 110.941406 C 133.4375 125.949219 123.511719 145.238281 120.441406 166.300781 C 115.589844 140.808594 119.324219 119.632812 131.582031 103.269531 Z M 131.582031 103.269531 " fill-opacity="1" fill-rule="nonzero"/></g><path fill="#ffffff" d="M 224.082031 188.828125 C 217.75 194.433594 218.121094 203.003906 218.136719 203.363281 L 218.191406 204.453125 L 219.246094 204.757812 C 221.632812 205.449219 223.921875 205.792969 226.09375 205.792969 C 229.460938 205.792969 232.566406 204.960938 235.367188 203.308594 C 243.953125 198.230469 246.5 187.25 246.605469 186.785156 L 246.960938 185.210938 L 245.371094 184.929688 C 236.015625 183.289062 228.855469 184.605469 224.082031 188.828125 Z M 233.789062 200.671875 C 230.21875 202.777344 226 203.257812 221.230469 202.109375 C 221.363281 199.859375 222.121094 194.652344 226.140625 191.113281 C 229.902344 187.796875 235.621094 186.648438 243.148438 187.695312 C 242.15625 190.726562 239.4375 197.339844 233.789062 200.671875 Z M 233.789062 200.671875 " fill-opacity="1" fill-rule="nonzero"/><path fill="#ffffff" d="M 205.652344 172.511719 C 206.925781 180.867188 214.324219 185.203125 214.640625 185.386719 L 215.59375 185.929688 L 216.417969 185.210938 C 221.203125 181.050781 223.738281 176.230469 223.945312 170.878906 C 224.335938 160.910156 216.496094 152.8125 216.160156 152.472656 L 215.03125 151.324219 L 213.9375 152.507812 C 207.476562 159.476562 204.691406 166.207031 205.652344 172.511719 Z M 215.042969 155.875 C 217.050781 158.355469 221.128906 164.226562 220.867188 170.777344 C 220.699219 174.917969 218.8125 178.726562 215.257812 182.109375 C 213.445312 180.789062 209.496094 177.359375 208.691406 172.046875 C 207.933594 167.078125 210.070312 161.644531 215.042969 155.875 Z M 215.042969 155.875 " fill-opacity="1" fill-rule="nonzero"/><path fill="#ffffff" d="M 212.324219 204.453125 L 212.382812 203.363281 C 212.398438 203.003906 212.765625 194.433594 206.4375 188.828125 C 201.664062 184.605469 194.5 183.292969 185.140625 184.933594 L 183.554688 185.214844 L 183.90625 186.789062 C 184.015625 187.253906 186.5625 198.234375 195.148438 203.3125 C 197.949219 204.964844 201.050781 205.796875 204.421875 205.796875 C 206.59375 205.796875 208.882812 205.453125 211.269531 204.761719 Z M 196.734375 200.671875 C 191.085938 197.339844 188.367188 190.726562 187.375 187.695312 C 194.902344 186.648438 200.621094 187.796875 204.386719 191.113281 C 208.402344 194.648438 209.15625 199.859375 209.292969 202.109375 C 204.523438 203.257812 200.304688 202.777344 196.734375 200.671875 Z M 196.734375 200.671875 " fill-opacity="1" fill-rule="nonzero"/><path fill="#ffffff" d="M 182.746094 211.558594 L 192.929688 224.421875 C 197.207031 229.820312 199.820312 236.953125 202.347656 243.851562 C 203.273438 246.371094 204.226562 248.980469 205.238281 251.410156 L 208.074219 250.230469 C 207.089844 247.859375 206.1875 245.398438 205.238281 242.792969 C 202.628906 235.667969 199.925781 228.304688 195.34375 222.511719 L 185.160156 209.648438 C 181.800781 205.40625 175.707031 204.582031 171.351562 207.683594 L 161.464844 179.292969 C 160.339844 176.042969 156.960938 174.199219 153.617188 174.996094 C 150.164062 175.820312 147.964844 179.199219 148.605469 182.703125 C 148.605469 182.703125 152.515625 202.960938 152.546875 203.117188 C 154.585938 213.675781 158.292969 223.285156 163.566406 231.675781 C 166.316406 236.050781 169.550781 240.195312 173.191406 244 C 174.839844 245.71875 177.742188 250.285156 179.75 253.808594 L 182.417969 252.285156 C 180.25 248.488281 177.242188 243.796875 175.410156 241.875 C 171.914062 238.21875 168.804688 234.238281 166.167969 230.042969 C 161.097656 221.972656 157.53125 212.722656 155.570312 202.574219 C 155.566406 202.546875 155.566406 202.546875 151.625 182.140625 C 151.28125 180.257812 152.46875 178.433594 154.332031 177.992188 C 156.132812 177.5625 157.953125 178.558594 158.566406 180.3125 L 170.105469 212.578125 L 185.105469 231.523438 L 187.511719 229.613281 L 172.511719 210.667969 L 172.839844 210.410156 C 175.886719 207.992188 180.332031 208.507812 182.746094 211.558594 Z M 182.746094 211.558594 " fill-opacity="1" fill-rule="nonzero"/><path fill="#ffffff" d="M 277.28125 175 C 273.933594 174.203125 270.5625 176.046875 269.433594 179.296875 L 259.550781 207.6875 C 257.503906 206.226562 255.023438 205.589844 252.511719 205.882812 C 249.824219 206.195312 247.421875 207.539062 245.742188 209.65625 L 235.554688 222.515625 C 230.976562 228.304688 228.273438 235.671875 225.664062 242.796875 C 224.710938 245.402344 223.808594 247.863281 222.824219 250.234375 L 225.664062 251.414062 C 226.671875 248.984375 227.628906 246.375 228.550781 243.855469 C 231.082031 236.957031 233.695312 229.824219 237.96875 224.425781 L 248.15625 211.5625 C 249.328125 210.085938 251.003906 209.152344 252.871094 208.933594 C 254.746094 208.71875 256.589844 209.238281 258.066406 210.410156 L 258.390625 210.667969 L 243.390625 229.613281 L 245.800781 231.523438 L 260.800781 212.578125 L 272.339844 180.308594 C 272.953125 178.554688 274.773438 177.558594 276.574219 177.988281 C 278.4375 178.433594 279.625 180.257812 279.28125 182.121094 C 279.28125 182.121094 275.539062 201.507812 275.347656 202.492188 L 275.339844 202.535156 C 273.375 212.722656 269.804688 221.972656 264.734375 230.042969 C 262.09375 234.238281 258.984375 238.222656 255.492188 241.875 C 253.65625 243.792969 250.648438 248.484375 248.480469 252.285156 L 251.152344 253.808594 C 253.15625 250.289062 256.066406 245.722656 257.714844 244 C 261.351562 240.195312 264.589844 236.050781 267.339844 231.675781 C 272.613281 223.285156 276.320312 213.675781 278.359375 203.117188 C 278.441406 202.714844 278.933594 200.164062 282.304688 182.691406 C 282.9375 179.203125 280.734375 175.824219 277.28125 175 Z M 277.28125 175 " fill-opacity="1" fill-rule="nonzero"/><g fill="#ffffff" fill-opacity="1"><g transform="translate(57.001706, 326.890527)"><g><path d="M 4.515625 0 L 4.515625 -11.703125 L 0.5625 -11.703125 L 0.5625 -13.09375 L 10.140625 -13.09375 L 10.140625 -11.703125 L 6.1875 -11.703125 L 6.1875 0 Z M 4.515625 0 "/></g></g></g><g fill="#ffffff" fill-opacity="1"><g transform="translate(72.670724, 326.890527)"><g><path d="M 1.796875 0 L 1.796875 -13.09375 L 3.453125 -13.09375 L 3.453125 -7.609375 L 9.546875 -7.609375 L 9.546875 -13.09375 L 11.21875 -13.09375 L 11.21875 0 L 9.546875 0 L 9.546875 -6.171875 L 3.453125 -6.171875 L 3.453125 0 Z M 1.796875 0 "/></g></g></g><g fill="#ffffff" fill-opacity="1"><g transform="translate(90.654767, 326.890527)"><g><path d="M 1.796875 0 L 1.796875 -13.09375 L 9.34375 -13.09375 L 9.34375 -11.703125 L 3.453125 -11.703125 L 3.453125 -7.59375 L 8.421875 -7.59375 L 8.421875 -6.171875 L 3.453125 -6.171875 L 3.453125 -1.421875 L 9.546875 -1.421875 L 9.546875 0 Z M 1.796875 0 "/></g></g></g><g fill="#ffffff" fill-opacity="1"><g transform="translate(106.144166, 326.890527)"><g><path d="M 1.796875 0 L 1.796875 -13.09375 L 5.890625 -13.09375 C 6.554688 -13.09375 7.171875 -13.03125 7.734375 -12.90625 C 8.304688 -12.78125 8.789062 -12.570312 9.1875 -12.28125 C 9.59375 -11.988281 9.910156 -11.609375 10.140625 -11.140625 C 10.367188 -10.671875 10.484375 -10.097656 10.484375 -9.421875 C 10.484375 -8.398438 10.21875 -7.582031 9.6875 -6.96875 C 9.15625 -6.351562 8.4375 -5.9375 7.53125 -5.71875 L 10.859375 0 L 8.984375 0 L 5.828125 -5.53125 L 3.453125 -5.53125 L 3.453125 0 Z M 3.453125 -6.890625 L 5.65625 -6.890625 C 6.675781 -6.890625 7.457031 -7.097656 8 -7.515625 C 8.550781 -7.929688 8.828125 -8.566406 8.828125 -9.421875 C 8.828125 -10.285156 8.550781 -10.890625 8 -11.234375 C 7.457031 -11.585938 6.675781 -11.765625 5.65625 -11.765625 L 3.453125 -11.765625 Z M 3.453125 -6.890625 "/></g></g></g><g fill="#ffffff" fill-opacity="1"><g transform="translate(122.471771, 326.890527)"><g><path d="M 4.046875 -7.328125 L 3.4375 -5.328125 L 7.375 -5.328125 L 6.75 -7.328125 C 6.507812 -8.054688 6.28125 -8.785156 6.0625 -9.515625 C 5.851562 -10.242188 5.644531 -10.984375 5.4375 -11.734375 L 5.359375 -11.734375 C 5.148438 -10.984375 4.9375 -10.242188 4.71875 -9.515625 C 4.507812 -8.785156 4.285156 -8.054688 4.046875 -7.328125 Z M 0.0625 0 L 4.5 -13.09375 L 6.375 -13.09375 L 10.796875 0 L 9.03125 0 L 7.78125 -4 L 3.015625 -4 L 1.75 0 Z M 0.0625 0 "/></g></g></g><g fill="#ffffff" fill-opacity="1"><g transform="translate(138.300448, 326.890527)"><g><path d="M 1.796875 0 L 1.796875 -13.09375 L 5.53125 -13.09375 C 6.257812 -13.09375 6.925781 -13.023438 7.53125 -12.890625 C 8.144531 -12.765625 8.660156 -12.550781 9.078125 -12.25 C 9.503906 -11.945312 9.835938 -11.550781 10.078125 -11.0625 C 10.316406 -10.570312 10.4375 -9.96875 10.4375 -9.25 C 10.4375 -8.550781 10.320312 -7.945312 10.09375 -7.4375 C 9.863281 -6.9375 9.535156 -6.519531 9.109375 -6.1875 C 8.679688 -5.851562 8.171875 -5.601562 7.578125 -5.4375 C 6.984375 -5.269531 6.328125 -5.1875 5.609375 -5.1875 L 3.453125 -5.1875 L 3.453125 0 Z M 3.453125 -6.546875 L 5.40625 -6.546875 C 6.550781 -6.546875 7.398438 -6.757812 7.953125 -7.1875 C 8.503906 -7.625 8.78125 -8.3125 8.78125 -9.25 C 8.78125 -10.1875 8.488281 -10.835938 7.90625 -11.203125 C 7.332031 -11.578125 6.472656 -11.765625 5.328125 -11.765625 L 3.453125 -11.765625 Z M 3.453125 -6.546875 "/></g></g></g><g fill="#ffffff" fill-opacity="1"><g transform="translate(154.568178, 326.890527)"><g><path d="M 1.796875 0 L 1.796875 -13.09375 L 3.453125 -13.09375 L 3.453125 0 Z M 1.796875 0 "/></g></g></g><g fill="#ffffff" fill-opacity="1"><g transform="translate(164.788919, 326.890527)"><g><path d="M 5.4375 0.234375 C 4.507812 0.234375 3.65625 0.0625 2.875 -0.28125 C 2.09375 -0.625 1.414062 -1.097656 0.84375 -1.703125 L 1.84375 -2.859375 C 2.300781 -2.359375 2.847656 -1.957031 3.484375 -1.65625 C 4.117188 -1.363281 4.773438 -1.21875 5.453125 -1.21875 C 6.316406 -1.21875 6.988281 -1.410156 7.46875 -1.796875 C 7.945312 -2.191406 8.1875 -2.710938 8.1875 -3.359375 C 8.1875 -3.691406 8.128906 -3.972656 8.015625 -4.203125 C 7.898438 -4.429688 7.742188 -4.628906 7.546875 -4.796875 C 7.359375 -4.960938 7.128906 -5.113281 6.859375 -5.25 C 6.597656 -5.382812 6.316406 -5.523438 6.015625 -5.671875 L 4.140625 -6.484375 C 3.828125 -6.617188 3.507812 -6.78125 3.1875 -6.96875 C 2.875 -7.15625 2.585938 -7.378906 2.328125 -7.640625 C 2.078125 -7.910156 1.875 -8.226562 1.71875 -8.59375 C 1.5625 -8.957031 1.484375 -9.378906 1.484375 -9.859375 C 1.484375 -10.359375 1.582031 -10.816406 1.78125 -11.234375 C 1.988281 -11.660156 2.273438 -12.03125 2.640625 -12.34375 C 3.003906 -12.65625 3.4375 -12.898438 3.9375 -13.078125 C 4.4375 -13.253906 4.988281 -13.34375 5.59375 -13.34375 C 6.375 -13.34375 7.097656 -13.191406 7.765625 -12.890625 C 8.429688 -12.585938 9 -12.195312 9.46875 -11.71875 L 8.5625 -10.640625 C 8.164062 -11.023438 7.722656 -11.328125 7.234375 -11.546875 C 6.753906 -11.765625 6.207031 -11.875 5.59375 -11.875 C 4.863281 -11.875 4.273438 -11.703125 3.828125 -11.359375 C 3.378906 -11.023438 3.15625 -10.5625 3.15625 -9.96875 C 3.15625 -9.644531 3.21875 -9.375 3.34375 -9.15625 C 3.46875 -8.9375 3.632812 -8.742188 3.84375 -8.578125 C 4.0625 -8.410156 4.296875 -8.265625 4.546875 -8.140625 C 4.804688 -8.015625 5.066406 -7.894531 5.328125 -7.78125 L 7.1875 -6.984375 C 7.5625 -6.828125 7.914062 -6.644531 8.25 -6.4375 C 8.582031 -6.226562 8.867188 -5.988281 9.109375 -5.71875 C 9.347656 -5.445312 9.535156 -5.128906 9.671875 -4.765625 C 9.816406 -4.398438 9.890625 -3.976562 9.890625 -3.5 C 9.890625 -2.976562 9.785156 -2.488281 9.578125 -2.03125 C 9.367188 -1.582031 9.070312 -1.1875 8.6875 -0.84375 C 8.300781 -0.507812 7.832031 -0.242188 7.28125 -0.046875 C 6.738281 0.140625 6.125 0.234375 5.4375 0.234375 Z M 5.4375 0.234375 "/></g></g></g><g fill="#ffffff" fill-opacity="1"><g transform="translate(180.418022, 326.890527)"><g><path d="M 4.515625 0 L 4.515625 -11.703125 L 0.5625 -11.703125 L 0.5625 -13.09375 L 10.140625 -13.09375 L 10.140625 -11.703125 L 6.1875 -11.703125 L 6.1875 0 Z M 4.515625 0 "/></g></g></g><g fill="#ffffff" fill-opacity="1"><g transform="translate(196.087043, 326.890527)"><g/></g></g><g fill="#ffffff" fill-opacity="1"><g transform="translate(205.05049, 326.890527)"><g><path d="M 6.75 0.234375 C 5.925781 0.234375 5.164062 0.0820312 4.46875 -0.21875 C 3.78125 -0.519531 3.175781 -0.960938 2.65625 -1.546875 C 2.144531 -2.128906 1.742188 -2.84375 1.453125 -3.6875 C 1.171875 -4.53125 1.03125 -5.484375 1.03125 -6.546875 C 1.03125 -7.597656 1.175781 -8.539062 1.46875 -9.375 C 1.769531 -10.21875 2.175781 -10.929688 2.6875 -11.515625 C 3.207031 -12.109375 3.820312 -12.5625 4.53125 -12.875 C 5.238281 -13.1875 6.007812 -13.34375 6.84375 -13.34375 C 7.644531 -13.34375 8.347656 -13.175781 8.953125 -12.84375 C 9.554688 -12.519531 10.050781 -12.144531 10.4375 -11.71875 L 9.546875 -10.640625 C 9.203125 -11.015625 8.804688 -11.3125 8.359375 -11.53125 C 7.921875 -11.757812 7.425781 -11.875 6.875 -11.875 C 6.25 -11.875 5.679688 -11.75 5.171875 -11.5 C 4.660156 -11.257812 4.222656 -10.910156 3.859375 -10.453125 C 3.503906 -9.992188 3.226562 -9.4375 3.03125 -8.78125 C 2.84375 -8.132812 2.75 -7.40625 2.75 -6.59375 C 2.75 -5.769531 2.84375 -5.023438 3.03125 -4.359375 C 3.226562 -3.703125 3.5 -3.140625 3.84375 -2.671875 C 4.195312 -2.210938 4.625 -1.851562 5.125 -1.59375 C 5.625 -1.34375 6.1875 -1.21875 6.8125 -1.21875 C 7.445312 -1.21875 8.003906 -1.347656 8.484375 -1.609375 C 8.960938 -1.867188 9.414062 -2.234375 9.84375 -2.703125 L 10.765625 -1.65625 C 10.242188 -1.0625 9.65625 -0.597656 9 -0.265625 C 8.351562 0.0664062 7.601562 0.234375 6.75 0.234375 Z M 6.75 0.234375 "/></g></g></g><g fill="#ffffff" fill-opacity="1"><g transform="translate(221.418012, 326.890527)"><g><path d="M 6.625 0.234375 C 5.800781 0.234375 5.046875 0.078125 4.359375 -0.234375 C 3.671875 -0.554688 3.082031 -1.015625 2.59375 -1.609375 C 2.101562 -2.203125 1.71875 -2.921875 1.4375 -3.765625 C 1.164062 -4.609375 1.03125 -5.554688 1.03125 -6.609375 C 1.03125 -7.660156 1.164062 -8.601562 1.4375 -9.4375 C 1.71875 -10.269531 2.101562 -10.972656 2.59375 -11.546875 C 3.082031 -12.128906 3.671875 -12.570312 4.359375 -12.875 C 5.046875 -13.1875 5.800781 -13.34375 6.625 -13.34375 C 7.457031 -13.34375 8.210938 -13.1875 8.890625 -12.875 C 9.578125 -12.5625 10.171875 -12.113281 10.671875 -11.53125 C 11.171875 -10.945312 11.554688 -10.238281 11.828125 -9.40625 C 12.097656 -8.582031 12.234375 -7.648438 12.234375 -6.609375 C 12.234375 -5.554688 12.097656 -4.609375 11.828125 -3.765625 C 11.554688 -2.921875 11.171875 -2.203125 10.671875 -1.609375 C 10.171875 -1.015625 9.578125 -0.554688 8.890625 -0.234375 C 8.210938 0.078125 7.457031 0.234375 6.625 0.234375 Z M 6.625 -1.21875 C 7.21875 -1.21875 7.75 -1.34375 8.21875 -1.59375 C 8.6875 -1.851562 9.085938 -2.21875 9.421875 -2.6875 C 9.765625 -3.15625 10.03125 -3.71875 10.21875 -4.375 C 10.40625 -5.039062 10.5 -5.785156 10.5 -6.609375 C 10.5 -7.421875 10.40625 -8.148438 10.21875 -8.796875 C 10.03125 -9.453125 9.765625 -10.003906 9.421875 -10.453125 C 9.085938 -10.910156 8.6875 -11.257812 8.21875 -11.5 C 7.75 -11.75 7.21875 -11.875 6.625 -11.875 C 6.039062 -11.875 5.507812 -11.75 5.03125 -11.5 C 4.5625 -11.257812 4.15625 -10.910156 3.8125 -10.453125 C 3.476562 -10.003906 3.21875 -9.453125 3.03125 -8.796875 C 2.84375 -8.148438 2.75 -7.421875 2.75 -6.609375 C 2.75 -5.785156 2.84375 -5.039062 3.03125 -4.375 C 3.21875 -3.71875 3.476562 -3.15625 3.8125 -2.6875 C 4.15625 -2.21875 4.5625 -1.851562 5.03125 -1.59375 C 5.507812 -1.34375 6.039062 -1.21875 6.625 -1.21875 Z M 6.625 -1.21875 "/></g></g></g><g fill="#ffffff" fill-opacity="1"><g transform="translate(239.641537, 326.890527)"><g><path d="M 1.796875 0 L 1.796875 -13.09375 L 3.515625 -13.09375 L 8.25 -4.875 L 9.671875 -2.15625 L 9.75 -2.15625 C 9.707031 -2.820312 9.660156 -3.507812 9.609375 -4.21875 C 9.566406 -4.9375 9.546875 -5.640625 9.546875 -6.328125 L 9.546875 -13.09375 L 11.125 -13.09375 L 11.125 0 L 9.40625 0 L 4.65625 -8.25 L 3.234375 -10.9375 L 3.15625 -10.9375 C 3.207031 -10.269531 3.253906 -9.59375 3.296875 -8.90625 C 3.347656 -8.226562 3.375 -7.539062 3.375 -6.84375 L 3.375 0 Z M 1.796875 0 "/></g></g></g><g fill="#ffffff" fill-opacity="1"><g transform="translate(257.525779, 326.890527)"><g><path d="M 1.796875 0 L 1.796875 -13.09375 L 3.515625 -13.09375 L 8.25 -4.875 L 9.671875 -2.15625 L 9.75 -2.15625 C 9.707031 -2.820312 9.660156 -3.507812 9.609375 -4.21875 C 9.566406 -4.9375 9.546875 -5.640625 9.546875 -6.328125 L 9.546875 -13.09375 L 11.125 -13.09375 L 11.125 0 L 9.40625 0 L 4.65625 -8.25 L 3.234375 -10.9375 L 3.15625 -10.9375 C 3.207031 -10.269531 3.253906 -9.59375 3.296875 -8.90625 C 3.347656 -8.226562 3.375 -7.539062 3.375 -6.84375 L 3.375 0 Z M 1.796875 0 "/></g></g></g><g fill="#ffffff" fill-opacity="1"><g transform="translate(275.410032, 326.890527)"><g><path d="M 1.796875 0 L 1.796875 -13.09375 L 9.34375 -13.09375 L 9.34375 -11.703125 L 3.453125 -11.703125 L 3.453125 -7.59375 L 8.421875 -7.59375 L 8.421875 -6.171875 L 3.453125 -6.171875 L 3.453125 -1.421875 L 9.546875 -1.421875 L 9.546875 0 Z M 1.796875 0 "/></g></g></g><g fill="#ffffff" fill-opacity="1"><g transform="translate(290.899426, 326.890527)"><g><path d="M 6.75 0.234375 C 5.925781 0.234375 5.164062 0.0820312 4.46875 -0.21875 C 3.78125 -0.519531 3.175781 -0.960938 2.65625 -1.546875 C 2.144531 -2.128906 1.742188 -2.84375 1.453125 -3.6875 C 1.171875 -4.53125 1.03125 -5.484375 1.03125 -6.546875 C 1.03125 -7.597656 1.175781 -8.539062 1.46875 -9.375 C 1.769531 -10.21875 2.175781 -10.929688 2.6875 -11.515625 C 3.207031 -12.109375 3.820312 -12.5625 4.53125 -12.875 C 5.238281 -13.1875 6.007812 -13.34375 6.84375 -13.34375 C 7.644531 -13.34375 8.347656 -13.175781 8.953125 -12.84375 C 9.554688 -12.519531 10.050781 -12.144531 10.4375 -11.71875 L 9.546875 -10.640625 C 9.203125 -11.015625 8.804688 -11.3125 8.359375 -11.53125 C 7.921875 -11.757812 7.425781 -11.875 6.875 -11.875 C 6.25 -11.875 5.679688 -11.75 5.171875 -11.5 C 4.660156 -11.257812 4.222656 -10.910156 3.859375 -10.453125 C 3.503906 -9.992188 3.226562 -9.4375 3.03125 -8.78125 C 2.84375 -8.132812 2.75 -7.40625 2.75 -6.59375 C 2.75 -5.769531 2.84375 -5.023438 3.03125 -4.359375 C 3.226562 -3.703125 3.5 -3.140625 3.84375 -2.671875 C 4.195312 -2.210938 4.625 -1.851562 5.125 -1.59375 C 5.625 -1.34375 6.1875 -1.21875 6.8125 -1.21875 C 7.445312 -1.21875 8.003906 -1.347656 8.484375 -1.609375 C 8.960938 -1.867188 9.414062 -2.234375 9.84375 -2.703125 L 10.765625 -1.65625 C 10.242188 -1.0625 9.65625 -0.597656 9 -0.265625 C 8.351562 0.0664062 7.601562 0.234375 6.75 0.234375 Z M 6.75 0.234375 "/></g></g></g><g fill="#ffffff" fill-opacity="1"><g transform="translate(307.266948, 326.890527)"><g><path d="M 4.515625 0 L 4.515625 -11.703125 L 0.5625 -11.703125 L 0.5625 -13.09375 L 10.140625 -13.09375 L 10.140625 -11.703125 L 6.1875 -11.703125 L 6.1875 0 Z M 4.515625 0 "/></g></g></g></svg>